<?xml version="1.0" standalone="no"?>
<!DOCTYPE svg PUBLIC "-//W3C//DTD SVG 1.1//EN" "http://www.w3.org/Graphics/SVG/1.1/DTD/svg11.dtd">
<svg xmlns="http://www.w3.org/2000/svg" id="Layer_1" data-name="Layer 1" viewBox="0 0 299.26 295.07" width="299.260009765625" height="295.07000732421875"><defs><style>.cls-1{fill:#fff;}.cls-2{fill:#141414;}.cls-3{fill:#ff7f00;}</style></defs><rect class="cls-1" x="4.19" width="295.07" height="295.07" rx="54.48"/><path class="cls-2" d="M69.37,122.6A4.81,4.81,0,1,1,70.78,126a4.59,4.59,0,0,1-1.41-3.37m1.52,12.32h6.52v35.23H70.89Z"/><path class="cls-2" d="M87.77,133.78h6.09v6.5H94a5.44,5.44,0,0,1,1.12-1.81,11.29,11.29,0,0,1,2.32-2.07,14,14,0,0,1,3.33-1.66,12.45,12.45,0,0,1,4.24-.69,12.19,12.19,0,0,1,6.45,1.59,11.84,11.84,0,0,1,4.27,4.78,11,11,0,0,1,4.71-4.78,13.2,13.2,0,0,1,6.16-1.59,14.29,14.29,0,0,1,6.53,1.3,10.64,10.64,0,0,1,4,3.44,13.1,13.1,0,0,1,2,4.86,27.94,27.94,0,0,1,.55,5.61v20.89h-6.52v-20a27.11,27.11,0,0,0-.26-3.77,8.71,8.71,0,0,0-1-3.18,5.9,5.9,0,0,0-2.25-2.21,7.59,7.59,0,0,0-3.84-.84c-3.14,0-5.38,1-6.74,2.9a12.75,12.75,0,0,0-2,7.47v19.65h-6.52V151.29a36.22,36.22,0,0,0-.25-4.49,10.86,10.86,0,0,0-1-3.52A5.65,5.65,0,0,0,107,141a7.41,7.41,0,0,0-3.8-.84,8.57,8.57,0,0,0-3.37.69A7.92,7.92,0,0,0,97,142.89a9.89,9.89,0,0,0-2,3.51,15.85,15.85,0,0,0-.73,5v18.71H87.77Z"/><path class="cls-3" d="M92.87,187.12l-37.6,0V106.78h100.8v80.36h-73a3.37,3.37,0,0,0,0,6.74H246.54V100h-198v93.84l40.28,0M207.92,171l-5.71-12-2.89-6.43-9.75-21.17-9.76,21.25-2.89,6.28L171.21,171H164l25.58-54L215.07,171Zm24.52,0h-7l-10.59-22.33-3.19-6.86h7.74c6.94,0,9.54-4.19,9.54-9s-2.6-8.88-9.54-8.88h-16.2L200,117h20.2c7.08,0,15.1,5.06,15.1,15.82,0,9.47-7.15,14.53-13.43,15.68Z"/></svg>